<mxfile host="app.diagrams.net" modified="2023-06-20T08:07:29.106Z" agent="Mozilla/5.0 (Windows NT 10.0; Win64; x64) AppleWebKit/537.36 (KHTML, like Gecko) Chrome/114.0.0.0 Safari/537.36" etag="DoDuOUfgDnQSAKloTmzK" version="21.3.7" type="github">
  <diagram id="prtHgNgQTEPvFCAcTncT" name="Page-1">
    <mxGraphModel dx="2048" dy="743" grid="1" gridSize="10" guides="1" tooltips="1" connect="1" arrows="1" fold="1" page="1" pageScale="1" pageWidth="827" pageHeight="1169" math="0" shadow="0">
      <root>
        <mxCell id="0" />
        <mxCell id="1" parent="0" />
        <mxCell id="HJtZERtwcfgc0-cwZ_ZO-3" value="" style="edgeStyle=orthogonalEdgeStyle;rounded=0;orthogonalLoop=1;jettySize=auto;html=1;" parent="1" source="HJtZERtwcfgc0-cwZ_ZO-1" target="HJtZERtwcfgc0-cwZ_ZO-2" edge="1">
          <mxGeometry relative="1" as="geometry" />
        </mxCell>
        <mxCell id="HJtZERtwcfgc0-cwZ_ZO-1" value="物料入库" style="strokeWidth=2;html=1;shape=mxgraph.flowchart.start_1;whiteSpace=wrap;" parent="1" vertex="1">
          <mxGeometry x="320" y="20" width="100" height="60" as="geometry" />
        </mxCell>
        <mxCell id="HJtZERtwcfgc0-cwZ_ZO-5" value="" style="edgeStyle=orthogonalEdgeStyle;rounded=0;orthogonalLoop=1;jettySize=auto;html=1;" parent="1" source="HJtZERtwcfgc0-cwZ_ZO-2" target="HJtZERtwcfgc0-cwZ_ZO-4" edge="1">
          <mxGeometry relative="1" as="geometry" />
        </mxCell>
        <mxCell id="HJtZERtwcfgc0-cwZ_ZO-2" value="待复核" style="whiteSpace=wrap;html=1;strokeWidth=2;" parent="1" vertex="1">
          <mxGeometry x="310" y="160" width="120" height="60" as="geometry" />
        </mxCell>
        <mxCell id="HJtZERtwcfgc0-cwZ_ZO-7" value="" style="edgeStyle=orthogonalEdgeStyle;rounded=0;orthogonalLoop=1;jettySize=auto;html=1;" parent="1" source="HJtZERtwcfgc0-cwZ_ZO-4" target="HJtZERtwcfgc0-cwZ_ZO-6" edge="1">
          <mxGeometry relative="1" as="geometry" />
        </mxCell>
        <mxCell id="HJtZERtwcfgc0-cwZ_ZO-4" value="撤回" style="whiteSpace=wrap;html=1;strokeWidth=2;" parent="1" vertex="1">
          <mxGeometry x="310" y="300" width="120" height="60" as="geometry" />
        </mxCell>
        <mxCell id="HJtZERtwcfgc0-cwZ_ZO-9" value="" style="edgeStyle=orthogonalEdgeStyle;rounded=0;orthogonalLoop=1;jettySize=auto;html=1;" parent="1" source="HJtZERtwcfgc0-cwZ_ZO-6" target="HJtZERtwcfgc0-cwZ_ZO-8" edge="1">
          <mxGeometry relative="1" as="geometry" />
        </mxCell>
        <mxCell id="HJtZERtwcfgc0-cwZ_ZO-17" value="" style="edgeStyle=orthogonalEdgeStyle;rounded=0;orthogonalLoop=1;jettySize=auto;html=1;" parent="1" source="HJtZERtwcfgc0-cwZ_ZO-6" target="HJtZERtwcfgc0-cwZ_ZO-16" edge="1">
          <mxGeometry relative="1" as="geometry" />
        </mxCell>
        <mxCell id="HJtZERtwcfgc0-cwZ_ZO-6" value="【草稿状态】" style="whiteSpace=wrap;html=1;strokeWidth=2;" parent="1" vertex="1">
          <mxGeometry x="110" y="300" width="120" height="60" as="geometry" />
        </mxCell>
        <mxCell id="HJtZERtwcfgc0-cwZ_ZO-11" value="" style="edgeStyle=orthogonalEdgeStyle;rounded=0;orthogonalLoop=1;jettySize=auto;html=1;" parent="1" source="HJtZERtwcfgc0-cwZ_ZO-8" target="HJtZERtwcfgc0-cwZ_ZO-10" edge="1">
          <mxGeometry relative="1" as="geometry" />
        </mxCell>
        <mxCell id="HJtZERtwcfgc0-cwZ_ZO-8" value="编辑入库单" style="whiteSpace=wrap;html=1;strokeWidth=2;" parent="1" vertex="1">
          <mxGeometry x="110" y="440" width="120" height="60" as="geometry" />
        </mxCell>
        <mxCell id="HJtZERtwcfgc0-cwZ_ZO-14" style="edgeStyle=orthogonalEdgeStyle;rounded=0;orthogonalLoop=1;jettySize=auto;html=1;exitX=1;exitY=0.5;exitDx=0;exitDy=0;entryX=1;entryY=0.5;entryDx=0;entryDy=0;" parent="1" source="HJtZERtwcfgc0-cwZ_ZO-10" target="HJtZERtwcfgc0-cwZ_ZO-2" edge="1">
          <mxGeometry relative="1" as="geometry">
            <mxPoint x="500" y="46" as="targetPoint" />
          </mxGeometry>
        </mxCell>
        <mxCell id="HJtZERtwcfgc0-cwZ_ZO-15" value="通过" style="edgeLabel;html=1;align=center;verticalAlign=middle;resizable=0;points=[];" parent="HJtZERtwcfgc0-cwZ_ZO-14" vertex="1" connectable="0">
          <mxGeometry x="0.1" y="1" relative="1" as="geometry">
            <mxPoint as="offset" />
          </mxGeometry>
        </mxCell>
        <mxCell id="HJtZERtwcfgc0-cwZ_ZO-20" value="不通过" style="edgeStyle=orthogonalEdgeStyle;rounded=0;orthogonalLoop=1;jettySize=auto;html=1;entryX=0.5;entryY=0;entryDx=0;entryDy=0;" parent="1" source="HJtZERtwcfgc0-cwZ_ZO-10" target="HJtZERtwcfgc0-cwZ_ZO-12" edge="1">
          <mxGeometry relative="1" as="geometry" />
        </mxCell>
        <mxCell id="HJtZERtwcfgc0-cwZ_ZO-10" value="校验" style="rhombus;whiteSpace=wrap;html=1;strokeWidth=2;" parent="1" vertex="1">
          <mxGeometry x="130" y="570" width="80" height="80" as="geometry" />
        </mxCell>
        <mxCell id="HJtZERtwcfgc0-cwZ_ZO-12" value="结束" style="ellipse;whiteSpace=wrap;html=1;strokeWidth=2;" parent="1" vertex="1">
          <mxGeometry x="130" y="730" width="80" height="80" as="geometry" />
        </mxCell>
        <mxCell id="HJtZERtwcfgc0-cwZ_ZO-18" style="edgeStyle=orthogonalEdgeStyle;rounded=0;orthogonalLoop=1;jettySize=auto;html=1;entryX=0;entryY=0.5;entryDx=0;entryDy=0;" parent="1" source="HJtZERtwcfgc0-cwZ_ZO-16" target="HJtZERtwcfgc0-cwZ_ZO-12" edge="1">
          <mxGeometry relative="1" as="geometry">
            <Array as="points">
              <mxPoint x="-30" y="770" />
            </Array>
          </mxGeometry>
        </mxCell>
        <mxCell id="HJtZERtwcfgc0-cwZ_ZO-16" value="删除入库单" style="whiteSpace=wrap;html=1;strokeWidth=2;" parent="1" vertex="1">
          <mxGeometry x="-90" y="300" width="120" height="60" as="geometry" />
        </mxCell>
        <mxCell id="o2M-z7OWMiym3yAnIbGK-3" value="" style="edgeStyle=orthogonalEdgeStyle;rounded=0;orthogonalLoop=1;jettySize=auto;html=1;" edge="1" parent="1" source="o2M-z7OWMiym3yAnIbGK-1" target="o2M-z7OWMiym3yAnIbGK-2">
          <mxGeometry relative="1" as="geometry" />
        </mxCell>
        <mxCell id="o2M-z7OWMiym3yAnIbGK-1" value="cron定时任务（5MIN）" style="ellipse;whiteSpace=wrap;html=1;" vertex="1" parent="1">
          <mxGeometry x="-570" y="90" width="120" height="80" as="geometry" />
        </mxCell>
        <mxCell id="o2M-z7OWMiym3yAnIbGK-5" value="" style="edgeStyle=orthogonalEdgeStyle;rounded=0;orthogonalLoop=1;jettySize=auto;html=1;" edge="1" parent="1" source="o2M-z7OWMiym3yAnIbGK-2" target="o2M-z7OWMiym3yAnIbGK-4">
          <mxGeometry relative="1" as="geometry" />
        </mxCell>
        <mxCell id="o2M-z7OWMiym3yAnIbGK-2" value="拉取物料库存及批号数据" style="whiteSpace=wrap;html=1;" vertex="1" parent="1">
          <mxGeometry x="-570" y="260" width="120" height="60" as="geometry" />
        </mxCell>
        <mxCell id="o2M-z7OWMiym3yAnIbGK-7" value="" style="edgeStyle=orthogonalEdgeStyle;rounded=0;orthogonalLoop=1;jettySize=auto;html=1;" edge="1" parent="1" source="o2M-z7OWMiym3yAnIbGK-4" target="o2M-z7OWMiym3yAnIbGK-6">
          <mxGeometry relative="1" as="geometry" />
        </mxCell>
        <mxCell id="o2M-z7OWMiym3yAnIbGK-9" value="" style="edgeStyle=orthogonalEdgeStyle;rounded=0;orthogonalLoop=1;jettySize=auto;html=1;" edge="1" parent="1" source="o2M-z7OWMiym3yAnIbGK-4" target="o2M-z7OWMiym3yAnIbGK-8">
          <mxGeometry relative="1" as="geometry" />
        </mxCell>
        <mxCell id="o2M-z7OWMiym3yAnIbGK-26" value="" style="edgeStyle=orthogonalEdgeStyle;rounded=0;orthogonalLoop=1;jettySize=auto;html=1;" edge="1" parent="1" source="o2M-z7OWMiym3yAnIbGK-4" target="o2M-z7OWMiym3yAnIbGK-25">
          <mxGeometry relative="1" as="geometry" />
        </mxCell>
        <mxCell id="o2M-z7OWMiym3yAnIbGK-4" value="判断有效期至" style="rhombus;whiteSpace=wrap;html=1;" vertex="1" parent="1">
          <mxGeometry x="-550" y="390" width="80" height="80" as="geometry" />
        </mxCell>
        <mxCell id="o2M-z7OWMiym3yAnIbGK-22" style="edgeStyle=orthogonalEdgeStyle;rounded=0;orthogonalLoop=1;jettySize=auto;html=1;entryX=0.5;entryY=0;entryDx=0;entryDy=0;" edge="1" parent="1" source="o2M-z7OWMiym3yAnIbGK-6" target="o2M-z7OWMiym3yAnIbGK-20">
          <mxGeometry relative="1" as="geometry" />
        </mxCell>
        <mxCell id="o2M-z7OWMiym3yAnIbGK-6" value="近效期" style="whiteSpace=wrap;html=1;" vertex="1" parent="1">
          <mxGeometry x="-410" y="400" width="120" height="60" as="geometry" />
        </mxCell>
        <mxCell id="o2M-z7OWMiym3yAnIbGK-21" value="" style="edgeStyle=orthogonalEdgeStyle;rounded=0;orthogonalLoop=1;jettySize=auto;html=1;" edge="1" parent="1" source="o2M-z7OWMiym3yAnIbGK-8" target="o2M-z7OWMiym3yAnIbGK-20">
          <mxGeometry relative="1" as="geometry" />
        </mxCell>
        <mxCell id="o2M-z7OWMiym3yAnIbGK-8" value="过期" style="rounded=1;whiteSpace=wrap;html=1;" vertex="1" parent="1">
          <mxGeometry x="-570" y="560" width="120" height="60" as="geometry" />
        </mxCell>
        <mxCell id="o2M-z7OWMiym3yAnIbGK-24" value="" style="edgeStyle=orthogonalEdgeStyle;rounded=0;orthogonalLoop=1;jettySize=auto;html=1;" edge="1" parent="1" source="o2M-z7OWMiym3yAnIbGK-20" target="o2M-z7OWMiym3yAnIbGK-23">
          <mxGeometry relative="1" as="geometry" />
        </mxCell>
        <mxCell id="o2M-z7OWMiym3yAnIbGK-20" value="变更物料库存 状态字段" style="whiteSpace=wrap;html=1;rounded=1;" vertex="1" parent="1">
          <mxGeometry x="-410" y="560" width="120" height="60" as="geometry" />
        </mxCell>
        <mxCell id="o2M-z7OWMiym3yAnIbGK-23" value="" style="ellipse;whiteSpace=wrap;html=1;rounded=1;" vertex="1" parent="1">
          <mxGeometry x="-390" y="690" width="80" height="80" as="geometry" />
        </mxCell>
        <mxCell id="o2M-z7OWMiym3yAnIbGK-28" value="" style="edgeStyle=orthogonalEdgeStyle;rounded=0;orthogonalLoop=1;jettySize=auto;html=1;" edge="1" parent="1" source="o2M-z7OWMiym3yAnIbGK-25" target="o2M-z7OWMiym3yAnIbGK-27">
          <mxGeometry relative="1" as="geometry" />
        </mxCell>
        <mxCell id="o2M-z7OWMiym3yAnIbGK-25" value="可用" style="whiteSpace=wrap;html=1;" vertex="1" parent="1">
          <mxGeometry x="-730" y="400" width="120" height="60" as="geometry" />
        </mxCell>
        <mxCell id="o2M-z7OWMiym3yAnIbGK-27" value="" style="ellipse;whiteSpace=wrap;html=1;" vertex="1" parent="1">
          <mxGeometry x="-710" y="530" width="80" height="80" as="geometry" />
        </mxCell>
      </root>
    </mxGraphModel>
  </diagram>
</mxfile>
